Coordinates
version=1
nRows=8
nColumns=36
inDegrees=yes

Units are S.I. units (second, meters, Newtons, ...)
If the header above contains a line with 'inDegrees', this indicates whether rotational values are in degrees (yes) or radians (no).

endheader
time	pelvis_tilt	pelvis_list	pelvis_rotation	pelvis_tx	pelvis_ty	pelvis_tz	hip_flexion_r	hip_adduction_r	hip_rotation_r	knee_angle_r	knee_angle_r_beta	ankle_angle_r	subtalar_angle_r	mtp_angle_r	hip_flexion_l	hip_adduction_l	hip_rotation_l	knee_angle_l	knee_angle_l_beta	ankle_angle_l	subtalar_angle_l	mtp_angle_l	lumbar_extension	lumbar_bending	lumbar_rotation	arm_flex_r	arm_add_r	arm_rot_r	elbow_flex_r	pro_sup_r	arm_flex_l	arm_add_l	arm_rot_l	elbow_flex_l	pro_sup_l
      0.00000000	     -7.04569204	      0.68510042	      0.21906440	      0.28273013	      0.98440270	     -0.05775635	     -0.76401219	     -1.78873372	     -7.26245089	      0.09689515	      0.00169114	      5.47542830	      0.73714050	     -4.46836155	      1.37974425	     -1.36952518	      2.27584174	      4.49858789	      0.07851517	     -2.40609583	    -11.97997705	     -4.46836155	      4.81683988	     -1.35821909	      2.11420631	     -7.54492000	    -10.26038855	      4.75197997	     29.35421576	     85.62562352	     -2.23865332	    -11.43233492	     17.27032768	     24.84875372	     81.17494835
      0.01666670	     -9.93608800	      0.38097890	      0.78277299	      0.28256138	      0.98047793	     -0.05908633	      1.78183174	     -1.58499112	     -7.69386774	      0.08596038	      0.00150029	      6.12166450	      2.67857833	     -5.00847106	      3.60474519	     -1.79081051	      3.56821330	      3.06276759	      0.05345538	     -3.12210252	    -10.95276587	     -5.00847106	      8.11540669	     -1.38288242	      0.53027756	    -11.00478470	    -10.00198906	      6.83025074	     34.87468344	     83.80799179	     -5.20211890	    -11.33571331	     19.84199997	     27.29929907	     80.05464326
      0.03333330	    -11.39584328	      0.50259488	      1.06236255	      0.28302342	      0.97992729	     -0.05933644	      3.14480917	     -1.75160041	     -7.13911469	      0.08331593	      0.00145414	      6.47344512	      1.95460146	     -5.34325216	      4.96634563	     -1.61511330	      4.24317092	      2.63465437	      0.04598339	     -2.97410363	    -11.68423826	     -5.34325216	      9.82894624	     -1.83581975	     -0.60720543	    -11.09749235	     -9.00432383	      6.06014041	     34.52035227	     81.92080787	     -5.07472545	    -10.80513390	     20.55102512	     24.78834274	     78.69392439
      0.05000000	    -12.96448055	      0.47005387	      1.21008354	      0.28378032	      0.97658551	     -0.05957605	      4.66730685	     -1.87781583	     -6.75129957	      0.08260426	      0.00144172	      6.40916949	      1.96156915	     -5.83170470	      6.34569178	     -1.67203087	      4.90599570	      2.05030769	      0.03578462	     -2.61858471	    -11.55446898	     -5.83170470	     11.83555523	     -1.99687940	     -0.95079262	    -11.44102103	     -8.60662202	      4.87761014	     34.80154231	     78.46034940	     -4.99007972	    -10.57967441	     21.12062564	     22.75930309	     75.87803311
      0.06666670	    -13.68964891	      0.45241087	      1.15752800	      0.28447057	      0.97560916	     -0.05967801	      5.30067561	     -1.95202465	     -6.29234007	      0.08227141	      0.00143591	      6.55919294	      1.71347798	     -6.02408342	      6.86559964	     -1.74718479	      4.74533945	      1.53256191	      0.02674825	     -1.86079732	    -11.22508667	     -6.02408342	     12.80466175	     -2.04492053	     -1.48535710	    -11.34456275	     -8.38099585	      4.29411958	     34.43080153	     77.05164789	     -5.34316839	    -10.49415321	     21.04147223	     22.03863577	     74.72631759
      0.08333330	    -14.37167183	      0.29941906	      1.27180244	      0.27692440	      0.97385394	     -0.06663549	      6.01010287	     -1.96153673	     -5.95043226	      0.08279632	      0.00144507	      6.31128554	      1.16753524	     -6.16579255	      7.52092207	     -1.88431137	      4.66596872	      1.10872365	      0.01935088	     -1.35384299	    -10.62193226	     -6.16579255	     13.48555057	     -1.86823942	     -1.93313237	    -11.31488490	     -8.48152978	      3.95311676	     34.75591023	     75.53135502	     -5.64891443	    -10.45293889	     20.98195092	     22.17010106	     73.56878043
      0.10000000	    -14.95567876	      0.19903273	      1.35627428	      0.27747125	      0.97302268	     -0.06696943	      6.62966016	     -2.00210842	     -5.92774488	      0.08324133	      0.00145284	      6.22356266	      1.02101669	     -6.33329882	      8.14662094	     -1.94303278	      4.26144019	      0.92833198	      0.01620245	     -0.74230531	    -10.09042476	     -6.33329882	     14.14690425	     -1.72115005	     -2.24249724	    -11.26967027	     -8.55946530	      3.92880739	     34.72506939	     73.91343069	     -5.81594396	    -10.41988385	     21.53221134	     22.25047828	     72.56781755
      0.11666670	    -15.61237037	      0.14181578	      1.54380011	      0.27805136	      0.97213469	     -0.06729877	      7.31413896	     -2.08695627	     -5.83871288	      0.08293968	      0.00144757	      6.09483214	      0.76324706	     -6.42820748	      8.89431252	     -1.93452902	      3.95507647	      0.85826347	      0.01497952	     -0.03749913	     -9.35265083	     -6.42820748	     14.84428836	     -1.62842395	     -2.57448648	    -11.66290922	     -8.67141504	      3.83328024	     35.54539123	     73.17622300	     -6.36892641	    -10.60007206	     21.64117110	     23.42305861	     72.04786556
